<?xml version="1.0" encoding="UTF-8"?>
<svg xmlns="http://www.w3.org/2000/svg" onmouseup="{ if(window.parent.document.onmouseup) window.parent.document.onmouseup(arguments[0]);}" viewBox="0 0 139.75 21.68"><defs><style>.cls-1,.cls-2{fill:#060b1e;}.cls-2{fill-rule:evenodd;}</style></defs><title/><g data-name="Layer 2" id="Layer_2"><g data-name="Layer 1" id="Layer_1-2"><path data-cppathid="10000" d="M0,15.85V6.31H7.63V8H2.07v2.3H7.48V12H2.07v3.87Z" class="cls-1"/><path data-cppathid="10001" d="M7.6,15.85l4.33-9.61h2.12l4.34,9.61H16.25l-.76-1.7H10.4l-.76,1.7Zm3.49-3.3h3.72L12.94,8.42Z" class="cls-1"/><path data-cppathid="10002" d="M23.86,16a9.22,9.22,0,0,1-5-1.22l1.05-1.36a7.5,7.5,0,0,0,3.87,1,5.07,5.07,0,0,0,2.12-.3,1.07,1.07,0,0,0,.56-1,.85.85,0,0,0-.61-.87,10.29,10.29,0,0,0-2.12-.45c-.61-.08-1.11-.15-1.51-.24a9.5,9.5,0,0,1-1.16-.32,2.71,2.71,0,0,1-.89-.49,2.17,2.17,0,0,1-.51-.73,2.81,2.81,0,0,1-.19-1A2.32,2.32,0,0,1,20.55,6.8a6.49,6.49,0,0,1,3.3-.65,8.4,8.4,0,0,1,4.23.92L27,8.52A5.33,5.33,0,0,0,25.56,8a7.83,7.83,0,0,0-1.72-.2A4.3,4.3,0,0,0,22.06,8a.93.93,0,0,0-.5.88.85.85,0,0,0,.6.83,9.93,9.93,0,0,0,2.13.43c.49.07.9.13,1.21.19s.65.13,1,.22a3.35,3.35,0,0,1,.87.34,3.38,3.38,0,0,1,.61.48,1.56,1.56,0,0,1,.43.68,3.24,3.24,0,0,1,.13.92,2.54,2.54,0,0,1-1.09,2.24A6.62,6.62,0,0,1,23.86,16Z" class="cls-1"/><path data-cppathid="10003" d="M33,15.85V8H29.15V6.31h9.72V8H35.05v7.84Z" class="cls-1"/><path data-cppathid="10004" d="M40.45,15.85V6.31h7.88V8H42.52v2.12h5.66v1.66H42.52V14.2h5.87v1.65Z" class="cls-1"/><path data-cppathid="10005" d="M57.27,15.85l-2.13-3.32H52.51v3.32h-2V6.31h5.07a4.94,4.94,0,0,1,3.17.77,2.81,2.81,0,0,1,.9,2.26,2.83,2.83,0,0,1-2.38,3l2.25,3.5ZM52.51,10.9h3a2.88,2.88,0,0,0,1.56-.32,1.29,1.29,0,0,0,.49-1.16,1.3,1.3,0,0,0-.49-1.18,2.91,2.91,0,0,0-1.59-.32h-3Z" class="cls-1"/><path data-cppathid="10006" d="M108.57,7.92h-3v3h3a2.82,2.82,0,0,0,1.55-.32,1.27,1.27,0,0,0,.49-1.16,1.32,1.32,0,0,0-.48-1.18A2.91,2.91,0,0,0,108.57,7.92Z" class="cls-2"/><path data-cppathid="10007" d="M84.18,7.86a3.78,3.78,0,0,0-2.72.83,3.23,3.23,0,0,0-.84,2.41,3.25,3.25,0,0,0,.84,2.42,4.92,4.92,0,0,0,5.44,0,3.25,3.25,0,0,0,.84-2.42,3.23,3.23,0,0,0-.84-2.41A3.77,3.77,0,0,0,84.18,7.86Z" class="cls-2"/><path data-cppathid="10008" d="M139.74,18.76a3.56,3.56,0,0,0-.06-.44,6.26,6.26,0,0,0-.26-.93,18.51,18.51,0,0,1-.18-13.09,3.74,3.74,0,0,0,0-3.2,2.07,2.07,0,0,0-1.08-.88,3.66,3.66,0,0,0-.82-.19l-.47,0h-.53a404.9,404.9,0,0,1-72,0H63.9l-.47,0a3.7,3.7,0,0,0-.81.19,2.13,2.13,0,0,0-1.07.88,2.69,2.69,0,0,0-.34,1.42,4.93,4.93,0,0,0,.38,1.79,17.73,17.73,0,0,1,.12,13.09,5.55,5.55,0,0,0-.4,1.79,2.52,2.52,0,0,0,.31,1.4c.44.77,1.37,1.18,2.82,1.05a433.24,433.24,0,0,1,71.95,0,3.06,3.06,0,0,0,3-1.08,2.65,2.65,0,0,0,.4-1.4A3,3,0,0,0,139.74,18.76ZM75.85,15.61a7.34,7.34,0,0,1-2.59.38,5.93,5.93,0,0,1-4.19-1.24,4.79,4.79,0,0,1-1.31-3.68q0-4.92,5.61-4.92A6,6,0,0,1,77.5,7.49L76,8.78a4,4,0,0,0-2.68-.92,3.78,3.78,0,0,0-2.66.81,3.16,3.16,0,0,0-.86,2.41,3.24,3.24,0,0,0,.83,2.42,3.71,3.71,0,0,0,2.7.82,4.4,4.4,0,0,0,1.6-.25,4.56,4.56,0,0,0,1.19-.72l1.41,1.21A5.37,5.37,0,0,1,75.85,15.61Zm8.33.39q-5.64,0-5.64-4.93t5.64-4.92c3.78,0,5.66,1.64,5.66,4.92S88,16,84.18,16Zm17-3.76a7.22,7.22,0,0,1-.08,1.11,3.33,3.33,0,0,1-.38,1,2.48,2.48,0,0,1-.79.88,4.7,4.7,0,0,1-1.42.56,9.11,9.11,0,0,1-2.18.23,9.23,9.23,0,0,1-2.18-.23,4.53,4.53,0,0,1-1.41-.56,2.45,2.45,0,0,1-.78-.88,3.08,3.08,0,0,1-.37-1,7.37,7.37,0,0,1-.07-1.12V6.31h2.07V12a2.41,2.41,0,0,0,.57,1.77,3.14,3.14,0,0,0,2.2.57,3.19,3.19,0,0,0,2.22-.56A2.39,2.39,0,0,0,99.18,12V6.31h2Zm11.39,3.61h-2.23l-2.13-3.32h-2.63v3.32h-2V6.31h5.08a4.89,4.89,0,0,1,3.16.77,2.78,2.78,0,0,1,.91,2.26,2.83,2.83,0,0,1-2.38,3Zm9.78-.6a6.65,6.65,0,0,1-3.6.74,9.22,9.22,0,0,1-5-1.22l1-1.36a7.49,7.49,0,0,0,3.86,1,5.09,5.09,0,0,0,2.13-.3,1.07,1.07,0,0,0,.56-1,.85.85,0,0,0-.61-.87,10.29,10.29,0,0,0-2.12-.45c-.61-.08-1.11-.15-1.51-.24a10.18,10.18,0,0,1-1.17-.32,2.94,2.94,0,0,1-.89-.49,2.3,2.3,0,0,1-.5-.73,2.62,2.62,0,0,1-.19-1,2.32,2.32,0,0,1,1-2.16,6.49,6.49,0,0,1,3.3-.65,8.4,8.4,0,0,1,4.23.92l-1.12,1.45a5.33,5.33,0,0,0-1.4-.53,7.85,7.85,0,0,0-1.73-.2A4.34,4.34,0,0,0,117,8a.92.92,0,0,0-.49.88.85.85,0,0,0,.6.83,9.65,9.65,0,0,0,2.13.43c.49.07.9.13,1.21.19s.65.13,1,.22a3.5,3.5,0,0,1,.87.34,3.38,3.38,0,0,1,.61.48,1.45,1.45,0,0,1,.42.68,2.91,2.91,0,0,1,.14.92A2.54,2.54,0,0,1,122.38,15.25Zm11,.6h-7.94V6.31h7.88V8h-5.81v2.12h5.66v1.66h-5.66V14.2h5.87Z" class="cls-2"/></g></g></svg>