<?xml version="1.0" encoding="UTF-8"?>
<svg xmlns="http://www.w3.org/2000/svg" onmouseup="{ if(window.parent.document.onmouseup) window.parent.document.onmouseup(arguments[0]);}" viewBox="0 0 57.38 57.38"><defs><style>.cls-1{fill:#f61b39;}.cls-2{fill:#fff;}</style></defs><title/><g data-name="Layer 2" id="Layer_2"><g data-name="Layer 1" id="Layer_1-2"><circle data-cppathid="10000" r="28.69" cy="28.69" cx="28.69" class="cls-1"/><path data-cppathid="10001" d="M38,13.27H29.27V11.58A.58.58,0,0,0,28.7,11a.57.57,0,0,0-.56.57v1.69H19.42A1.45,1.45,0,0,0,18,14.72V43.46a1.44,1.44,0,0,0,1.45,1.44H38a1.43,1.43,0,0,0,1.44-1.44V14.72A1.44,1.44,0,0,0,38,13.27ZM19.42,14.4h8.72v1.19a2.83,2.83,0,1,0,1.13,0V14.4H38a.32.32,0,0,1,.32.32V39.26H19.1V14.72a.32.32,0,0,1,.32-.32Zm9.28,4.52a.57.57,0,0,0,.57-.56V16.77a1.7,1.7,0,1,1-1.13,0v1.59a.56.56,0,0,0,.56.56ZM38,43.77H19.42a.31.31,0,0,1-.32-.31V40.39H38.31v3.07a.32.32,0,0,1-.32.31Z" class="cls-2"/><path data-cppathid="10002" d="M28.14,33.11v.5a.56.56,0,0,0,.56.56.57.57,0,0,0,.57-.56v-.5a2.84,2.84,0,0,0,1.59-.94,2,2,0,0,0,.45-1.48,2.05,2.05,0,0,0-.78-1.4l-1.26-1V25.24a1.69,1.69,0,0,1,1.13,1.59.56.56,0,0,0,.56.56.57.57,0,0,0,.57-.56,2.84,2.84,0,0,0-2.26-2.77v-.62a.57.57,0,0,0-.57-.56.56.56,0,0,0-.56.56v.62a2.82,2.82,0,0,0-1.59,1,1.9,1.9,0,0,0-.45,1.47,2.1,2.1,0,0,0,.78,1.41l1.26,1v3.07A1.68,1.68,0,0,1,27,30.34a.57.57,0,0,0-1.13,0,2.82,2.82,0,0,0,2.26,2.77ZM27.57,27a1,1,0,0,1-.35-.63.81.81,0,0,1,.19-.62,1.65,1.65,0,0,1,.73-.5v2.19Zm2.26,3.19a.9.9,0,0,1,.35.63.82.82,0,0,1-.18.63,1.72,1.72,0,0,1-.73.49V29.74Z" class="cls-2"/><path data-cppathid="10003" d="M24.19,36.43h9a.57.57,0,1,0,0-1.13h-9a.57.57,0,1,0,0,1.13Z" class="cls-2"/><path data-cppathid="10004" d="M24.19,38.12h9a.56.56,0,1,0,0-1.12h-9a.56.56,0,1,0,0,1.12Z" class="cls-2"/></g></g></svg>