<?xml version="1.0" encoding="UTF-8"?>
<svg xmlns="http://www.w3.org/2000/svg" onmouseup="{ if(window.parent.document.onmouseup) window.parent.document.onmouseup(arguments[0]);}" viewBox="0 0 57.38 57.38"><defs><style>.cls-1{fill:#f61b39;}.cls-2{fill:#fff;}</style></defs><title/><g data-name="Layer 2" id="Layer_2"><g data-name="Layer 1" id="Layer_1-2"><circle data-cppathid="10000" r="28.69" cy="28.69" cx="28.69" class="cls-1"/><path data-cppathid="10001" d="M42.34,20.07V16.45H15.14v3.62h.91V38.21h-.46a.45.45,0,0,0-.45.45.46.46,0,0,0,.45.46h12.7V40s0,0,0,.06a1.81,1.81,0,1,0,.88,0s0,0,0-.06v-.9h12.7a.46.46,0,0,0,.45-.46.45.45,0,0,0-.45-.45h-.46V20.07ZM29.65,41.84a.91.91,0,1,1-.91-.91.9.9,0,0,1,.91.91ZM16.05,17.35H41.43v1.82H16.05ZM40.53,38.21H17V20.07H40.53Z" class="cls-2"/><path data-cppathid="10002" d="M25.11,26.42a.45.45,0,1,1-.45-.45.45.45,0,0,1,.45.45Z" class="cls-2"/><path data-cppathid="10003" d="M25.11,28.24a.45.45,0,1,1-.45-.46.45.45,0,0,1,.45.46Z" class="cls-2"/><path data-cppathid="10004" d="M25.11,30.05a.45.45,0,0,1-.9,0,.45.45,0,1,1,.9,0Z" class="cls-2"/><path data-cppathid="10005" d="M25.11,31.86a.45.45,0,1,1-.9,0,.45.45,0,1,1,.9,0Z" class="cls-2"/><path data-cppathid="10006" d="M25.11,33.67a.45.45,0,1,1-.45-.45.45.45,0,0,1,.45.45Z" class="cls-2"/><path data-cppathid="10007" d="M18.76,35.49h20a.45.45,0,0,0,.45-.45.46.46,0,0,0-.45-.46H37.35v-10H34.63V23.25H31v3.17H28.29v2.72H26.47V24.61H22.85v2.72H20.13v7.25H18.76a.46.46,0,0,0-.45.46.45.45,0,0,0,.45.45Zm17.69-10v9.07H34.63V25.51Zm-4.54-1.35h1.82V34.58H31.91Zm-2.72,3.17H31v7.25H29.19Zm-.9,2.72v4.53H26.47V30.05Zm-3.18-4.54a.46.46,0,0,0,.45.46v.9a.46.46,0,0,0-.45.46.45.45,0,0,0,.45.45v.91a.45.45,0,0,0,0,.9v.91a.46.46,0,0,0-.45.46.45.45,0,0,0,.45.45v.91a.45.45,0,0,0,0,.9v.91a.45.45,0,0,0-.45.45h-.9a.46.46,0,0,0-.46-.45v-.91a.45.45,0,1,0,0-.9v-.91a.46.46,0,0,0,.46-.45.47.47,0,0,0-.46-.46v-.91a.45.45,0,1,0,0-.9v-.91a.46.46,0,0,0,.46-.45.47.47,0,0,0-.46-.46V26a.47.47,0,0,0,.46-.46ZM21,28.24h1.82v6.34H21Z" class="cls-2"/></g></g></svg>