<?xml version="1.0" encoding="UTF-8"?>
<svg xmlns="http://www.w3.org/2000/svg" onmouseup="{ if(window.parent.document.onmouseup) window.parent.document.onmouseup(arguments[0]);}" viewBox="0 0 57.38 57.38"><defs><style>.cls-1{fill:#f61b39;}.cls-2{fill:#fff;}</style></defs><title/><g data-name="Layer 2" id="Layer_2"><g data-name="Layer 1" id="Layer_1-2"><circle data-cppathid="10000" r="28.69" cy="28.69" cx="28.69" class="cls-1"/><path data-cppathid="10001" d="M37.46,16.11H19.91a3.81,3.81,0,0,0-3.8,3.8V37.46a3.81,3.81,0,0,0,3.8,3.81H37.46a3.82,3.82,0,0,0,3.81-3.81V19.91a3.81,3.81,0,0,0-3.81-3.8Zm2.91,21.35a2.91,2.91,0,0,1-2.91,2.91H19.91A2.9,2.9,0,0,1,17,37.46V29.77L19.82,27a2.25,2.25,0,0,0,1.23.37A2.29,2.29,0,0,0,22.29,27l4.53,4.53a2.16,2.16,0,0,0-.38,1.23,2.25,2.25,0,1,0,4.49,0,2.15,2.15,0,0,0-.37-1.23l6.22-6.22v3a.45.45,0,1,0,.89,0V23.75H33.18a.45.45,0,0,0,0,.9h3l-6.21,6.21a2.26,2.26,0,0,0-2.48,0l-4.53-4.53a2.18,2.18,0,0,0,.38-1.23,2.25,2.25,0,1,0-4.49,0,2.17,2.17,0,0,0,.37,1.23L17,28.5V19.91a2.9,2.9,0,0,1,2.9-2.9H37.46a2.9,2.9,0,0,1,2.91,2.9Zm-19.32-11A1.35,1.35,0,1,1,22.4,25.1a1.35,1.35,0,0,1-1.35,1.34Zm9,6.29a1.35,1.35,0,1,1-1.35-1.35A1.36,1.36,0,0,1,30,32.73Z" class="cls-2"/></g></g></svg>