<?xml version="1.0" encoding="UTF-8"?>
<svg xmlns="http://www.w3.org/2000/svg" onmouseup="{ if(window.parent.document.onmouseup) window.parent.document.onmouseup(arguments[0]);}" viewBox="0 0 57.38 57.38"><defs><style>.cls-1{fill:#f61b39;}.cls-2{fill:#fff;}</style></defs><title/><g data-name="Layer 2" id="Layer_2"><g data-name="Layer 1" id="Layer_1-2"><circle data-cppathid="10000" r="28.69" cy="28.69" cx="28.69" class="cls-1"/><path data-cppathid="10001" d="M40.6,26.51a.47.47,0,0,0-.47.47v.48a.48.48,0,1,0,.95,0V27a.47.47,0,0,0-.48-.47Z" class="cls-2"/><path data-cppathid="10002" d="M40.6,22.62a.47.47,0,0,0-.47.47V24.2a.48.48,0,1,0,.95,0V23.09a.47.47,0,0,0-.48-.47Z" class="cls-2"/><path data-cppathid="10003" d="M40.13,20.31a.48.48,0,1,0,.95,0v-.95h-.95a.48.48,0,1,0,0,.95Z" class="cls-2"/><path data-cppathid="10004" d="M23.09,20.31h1a.48.48,0,0,0,0-.95h-1a.48.48,0,0,0,0,.95Z" class="cls-2"/><path data-cppathid="10005" d="M26.5,20.31h1a.48.48,0,1,0,0-.95h-1a.48.48,0,1,0,0,.95Z" class="cls-2"/><path data-cppathid="10006" d="M29.91,20.31h1a.48.48,0,1,0,0-.95h-1a.48.48,0,1,0,0,.95Z" class="cls-2"/><path data-cppathid="10007" d="M36.72,20.31h1a.48.48,0,1,0,0-.95h-1a.48.48,0,1,0,0,.95Z" class="cls-2"/><path data-cppathid="10008" d="M33.31,20.31h1a.48.48,0,0,0,0-.95h-1a.48.48,0,0,0,0,.95Z" class="cls-2"/><path data-cppathid="10009" d="M19.69,20.31h1a.48.48,0,1,0,0-.95h-1a.48.48,0,1,0,0,.95Z" class="cls-2"/><path data-cppathid="10010" d="M16.78,20.79a.48.48,0,0,0,.47-.48.48.48,0,1,0,0-.95H16.3v.95a.48.48,0,0,0,.48.48Z" class="cls-2"/><path data-cppathid="10011" d="M16.78,24.23a.48.48,0,0,0,.47-.48v-1a.48.48,0,1,0-.95,0v1a.48.48,0,0,0,.48.48Z" class="cls-2"/><path data-cppathid="10012" d="M16.78,34.54a.48.48,0,0,0,.47-.48v-1a.48.48,0,1,0-.95,0v1a.48.48,0,0,0,.48.48Z" class="cls-2"/><path data-cppathid="10013" d="M16.78,27.66a.47.47,0,0,0,.47-.47v-1a.48.48,0,0,0-.95,0v1a.47.47,0,0,0,.48.47Z" class="cls-2"/><path data-cppathid="10014" d="M16.78,31.1a.47.47,0,0,0,.47-.48v-1a.48.48,0,1,0-.95,0v1a.47.47,0,0,0,.48.48Z" class="cls-2"/><path data-cppathid="10015" d="M17.73,37a.48.48,0,0,0-.48-.48.48.48,0,0,0-.95,0v1h.95a.48.48,0,0,0,.48-.48Z" class="cls-2"/><path data-cppathid="10016" d="M27.26,36.51h-1a.48.48,0,0,0,0,1h1a.48.48,0,0,0,0-1Z" class="cls-2"/><path data-cppathid="10017" d="M19.64,37.47h.95a.48.48,0,0,0,0-1h-.95a.48.48,0,0,0,0,1Z" class="cls-2"/><path data-cppathid="10018" d="M23.92,36.51H23a.48.48,0,0,0,0,1h1a.48.48,0,0,0,0-1Z" class="cls-2"/><path data-cppathid="10019" d="M30.12,36.51h-.48a.48.48,0,0,0,0,1h.48a.48.48,0,1,0,0-1Z" class="cls-2"/><path data-cppathid="10020" d="M43,17.45H14.39V39.37H32.5v4.49l3.34-3.34,3.34,3.34V39.37H43ZM38.22,41.56l-2.38-2.38-2.38,2.38V36.35h0a4.75,4.75,0,0,0,4.73,0h0Zm.14-6.48-.23.18-.05,0-.24.16-.05,0a2,2,0,0,1-.25.14l-.07,0-.24.11-.1,0-.23.07-.13,0-.21,0-.19,0-.17,0-.36,0-.37,0-.17,0-.18,0-.21,0-.13,0-.24-.07-.09,0-.25-.11-.07,0-.24-.14-.06,0-.24-.16,0,0-.23-.18a3.81,3.81,0,1,1,5,0ZM42,38.42H39.18v-2.8a4.77,4.77,0,1,0-6.68,0v2.8H15.35v-20H42Z" class="cls-2"/><path data-cppathid="10021" d="M20.2,23.54a1.62,1.62,0,0,0-.38,1.24A1.77,1.77,0,0,0,20.48,26l1.06.82v2.59A1.42,1.42,0,0,1,20.59,28a.48.48,0,1,0-.95,0,2.39,2.39,0,0,0,1.9,2.34v.41a.47.47,0,0,0,.48.48.48.48,0,0,0,.48-.48v-.41a2.45,2.45,0,0,0,1.34-.8,1.63,1.63,0,0,0,.37-1.24,1.7,1.7,0,0,0-.65-1.19l-1.06-.82v-2.6a1.44,1.44,0,0,1,.95,1.35.48.48,0,0,0,.95,0,2.39,2.39,0,0,0-1.9-2.34v-.52a.48.48,0,0,0-.48-.48.47.47,0,0,0-.48.48v.52a2.36,2.36,0,0,0-1.34.8ZM23,27.9a.78.78,0,0,1,.3.54.73.73,0,0,1-.16.53,1.47,1.47,0,0,1-.61.41V27.53Zm-1.91-2.69a.78.78,0,0,1-.29-.53.72.72,0,0,1,.15-.53,1.5,1.5,0,0,1,.62-.41v1.84Z" class="cls-2"/><path data-cppathid="10022" d="M26.31,24.6h11a.48.48,0,0,0,0-1h-11a.48.48,0,1,0,0,1Z" class="cls-2"/><path data-cppathid="10023" d="M26.31,27.46h5.24a.48.48,0,1,0,0-.95H26.31a.48.48,0,1,0,0,.95Z" class="cls-2"/><path data-cppathid="10024" d="M26.31,30.32h3.81a.48.48,0,1,0,0-.95H26.31a.48.48,0,1,0,0,.95Z" class="cls-2"/><path data-cppathid="10025" d="M19.64,33.65h10a.48.48,0,1,0,0-.95h-10a.48.48,0,1,0,0,.95Z" class="cls-2"/></g></g></svg>